# xmcd CD database file
#
# Track frame offsets:
#	150
#	15055
#	30113
#	46358
#	59159
#	69601
#	80925
#	100793
#	109284
#	128247
#	138552
#
# Disc length: 2116 seconds
#
# Revision: 2
# Processed by: cddbd v1.5.2PL0 Copyright (c) Steve Scherf et al.
# Submitted via: jetAudio 7
#
DISCID=9408420b
DTITLE=Muleskinner - A Potpourri Of Bluegrass Jam
DYEAR=1974
DGENRE=Bluegrass
TTITLE0=Muleskinner Blues
TTITLE1=Blue And Lonesome
TTITLE2=Footprints In The Snow
TTITLE3=Dark Hollow
TTITLE4=Whitehouse Blues
TTITLE5=Opus 57 In G Minor
TTITLE6=Runaways Of The Moon
TTITLE7=Roanoke
TTITLE8=Rain And Snow
TTITLE9=Soldier's Joy
TTITLE10=Blue Mule
EXTD=YEAR: 1974
EXTT0=
EXTT1=
EXTT2=
EXTT3=
EXTT4=
EXTT5=
EXTT6=
EXTT7=
EXTT8=
EXTT9=
EXTT10=
PLAYORDER=
